<svg id="Group_32" data-name="Group 32" xmlns="http://www.w3.org/2000/svg" width="103.244" height="93.581" viewBox="0 0 103.244 93.581">
  <path id="Path_45" data-name="Path 45" d="M98.158,154.124v15.3h-9.8" transform="translate(-59.898 -104.706)" fill="none" stroke="#fff" stroke-miterlimit="10" stroke-width="1.616"/>
  <line id="Line_8" data-name="Line 8" y2="15.302" transform="translate(28.464 49.418)" fill="none" stroke="#fff" stroke-miterlimit="10" stroke-width="1.616"/>
  <line id="Line_9" data-name="Line 9" y2="6.3" transform="translate(33.362 49.805)" fill="none" stroke="#fff" stroke-miterlimit="10" stroke-width="1.616"/>
  <path id="Path_46" data-name="Path 46" d="M211.895,104.9V89.6h6.553" transform="translate(-144.069 -60.739)" fill="none" stroke="#fff" stroke-miterlimit="10" stroke-width="1.616"/>
  <path id="Path_47" data-name="Path 47" d="M232.461,89.6v63.9" transform="translate(-158.082 -60.739)" fill="none" stroke="#fff" stroke-miterlimit="10" stroke-width="1.616"/>
  <path id="Path_48" data-name="Path 48" d="M180.855,104.9V89.6h6.553" transform="translate(-122.919 -60.739)" fill="none" stroke="#fff" stroke-miterlimit="10" stroke-width="1.616"/>
  <line id="Line_10" data-name="Line 10" x1="6.553" transform="translate(57.936 36.508)" fill="none" stroke="#fff" stroke-miterlimit="10" stroke-width="1.616"/>
  <line id="Line_11" data-name="Line 11" x1="6.553" transform="translate(58.003 68.985)" fill="none" stroke="#fff" stroke-miterlimit="10" stroke-width="1.616"/>
  <path id="Path_49" data-name="Path 49" d="M152.437,89.6v35.933H129.53" transform="translate(-87.949 -60.739)" fill="none" stroke="#fff" stroke-miterlimit="10" stroke-width="1.616"/>
  <path id="Path_50" data-name="Path 50" d="M142.636,104.9V89.6H129.53v15.3" transform="translate(-87.949 -60.739)" fill="none" stroke="#fff" stroke-miterlimit="10" stroke-width="1.616"/>
  <line id="Line_12" data-name="Line 12" y1="15.302" transform="translate(48.135 28.857)" fill="none" stroke="#fff" stroke-miterlimit="10" stroke-width="1.616"/>
  <path id="Path_51" data-name="Path 51" d="M150.006,169.426v-15.3h6.553V169.5" transform="translate(-101.9 -104.706)" fill="none" stroke="#fff" stroke-miterlimit="10" stroke-width="1.616"/>
  <path id="Path_52" data-name="Path 52" d="M129.53,158.078v0" transform="translate(-87.949 -93.288)" fill="none" stroke="#fff" stroke-miterlimit="10" stroke-width="1.616"/>
  <path id="Path_53" data-name="Path 53" d="M98.248,104.758H88.362V89.6" transform="translate(-59.898 -60.739)" fill="none" stroke="#fff" stroke-miterlimit="10" stroke-width="1.616"/>
  <line id="Line_13" data-name="Line 13" x1="9.886" transform="translate(28.464 28.857)" fill="none" stroke="#fff" stroke-miterlimit="10" stroke-width="1.616"/>
  <line id="Line_14" data-name="Line 14" x2="6.3" transform="translate(31.823 36.438)" fill="none" stroke="#fff" stroke-miterlimit="10" stroke-width="1.616"/>
  <rect id="Rectangle_16" data-name="Rectangle 16" width="102.339" height="92.676" transform="translate(0.452 0.452)" fill="none" stroke="#fff" stroke-miterlimit="10" stroke-width="0.905"/>
</svg>
