<svg xmlns="http://www.w3.org/2000/svg" width="391" height="391.375" viewBox="0 0 391 391.375">
  <g id="_1" data-name="1" transform="translate(-4086 -16280)">
    <rect id="Rectangle_5286" data-name="Rectangle 5286" width="391" height="391" transform="translate(4086 16280)" fill="none"/>
    <g id="nail" transform="translate(4118.179 16346.076)">
      <path id="Path_33525" data-name="Path 33525" d="M386.429,406.352a6.618,6.618,0,0,0-5.525,6.62v48.8c0,8.33,12.974,8.342,12.974,0v-49a6.491,6.491,0,0,0-7.449-6.418Z" transform="translate(-133.166 -142.721)" fill="#fff"/>
      <path id="Path_33526" data-name="Path 33526" d="M278.98,91.9a42.783,42.783,0,0,0-42.728-44.947H195A42.393,42.393,0,0,0,164,60.259c-11.528,12.125-11.972,26.673-11.181,42.286a89.851,89.851,0,0,0-28.636,65.727v167.27c0,8.33,12.974,8.342,12.974,0V168.271a76.853,76.853,0,0,1,16.578-47.638l2.784,54.964a59.113,59.113,0,0,0,118.225,0l2.568-50.713a76.193,76.193,0,0,1,13.412,43.387v65.211c0,8.329,12.974,8.342,12.974,0V168.271A89.1,89.1,0,0,0,278.281,105.7Zm-12.958-.656L261.775,175.1c-.005.109-.008.219-.008.328a46.138,46.138,0,0,1-92.277,0c0-.11,0-.219-.008-.328l-4.247-83.856A29.564,29.564,0,0,1,174,68.58a30.423,30.423,0,0,1,21.5-8.653h40.242a30.424,30.424,0,0,1,21.5,8.653,29.56,29.56,0,0,1,8.771,22.664Z" transform="translate(-42.983 -16.494)" fill="#fff"/>
      <path id="Path_33527" data-name="Path 33527" d="M458.238,82.926l-16.943-9.267-9.267-16.944a6.573,6.573,0,0,0-11.383,0l-9.267,16.944-16.944,9.267a6.573,6.573,0,0,0,0,11.383l16.944,9.267,9.267,16.943a6.573,6.573,0,0,0,11.383,0l9.267-16.943,16.943-9.267A6.573,6.573,0,0,0,458.238,82.926Zm-16.632,5.691-9.871,5.4-5.4,9.871-5.4-9.871-9.871-5.4,9.871-5.4,5.4-9.871,5.4,9.871Z" transform="translate(-136.765 -18.769)" fill="#fff"/>
      <path id="Path_33528" data-name="Path 33528" d="M38.846,38.342l15.3,8.37,8.37,15.3a6.573,6.573,0,0,0,11.383,0l8.37-15.3,15.3-8.37a6.573,6.573,0,0,0,0-11.383l-15.3-8.37L73.9,3.285a6.573,6.573,0,0,0-11.383,0l-8.37,15.3-15.3,8.37a6.572,6.572,0,0,0,0,11.382ZM55.479,32.65l8.232-4.5,4.5-8.232,4.5,8.232,8.232,4.5-8.232,4.5-4.5,8.232-4.5-8.232Z" transform="translate(-11.852 0)" fill="#fff"/>
      <path id="Path_33529" data-name="Path 33529" d="M67.127,267.222,50.759,258.27,41.808,241.9a6.573,6.573,0,0,0-11.383,0L21.473,258.27,5.106,267.222a6.573,6.573,0,0,0,0,11.383l16.367,8.952,8.952,16.367a6.573,6.573,0,0,0,11.383,0l8.952-16.367,16.367-8.952A6.573,6.573,0,0,0,67.127,267.222ZM41.2,278l-5.084,9.295L31.033,278l-9.295-5.083,9.3-5.085,5.083-9.294,5.083,9.295,9.295,5.084Z" transform="translate(0 -83.823)" fill="#fff"/>
      <path id="Path_33530" data-name="Path 33530" d="M381.408,374.123A6.486,6.486,0,1,0,384.2,366a6.531,6.531,0,0,0-2.795,8.123Z" transform="translate(-133.173 -128.279)" fill="#fff"/>
      <path id="Path_33531" data-name="Path 33531" d="M269.56,401.767c8.33,0,8.342-12.974,0-12.974H233.42c-8.33,0-8.342,12.974,0,12.974Z" transform="translate(-79.161 -136.577)" fill="#fff"/>
      <path id="Path_33532" data-name="Path 33532" d="M274.554,429.613h-55.8c-8.329,0-8.342,12.974,0,12.974h55.8C282.884,442.587,282.9,429.613,274.554,429.613Z" transform="translate(-74.011 -150.916)" fill="#fff"/>
    </g>
  </g>
</svg>
