<svg xmlns="http://www.w3.org/2000/svg" width="391" height="391.229" viewBox="0 0 391 391.229">
  <g id="_2" data-name="2" transform="translate(-4631 -16280)">
    <rect id="Rectangle_5287" data-name="Rectangle 5287" width="391" height="391" transform="translate(4631 16280)" fill="none"/>
    <g id="skincare" transform="translate(4624.655 16318.656)">
      <path id="Path_33515" data-name="Path 33515" d="M193.191,152.161A69.1,69.1,0,0,0,145.248,180.9l-1.043,1.48a5.166,5.166,0,1,0,8.448,5.949l1.043-1.48a58.755,58.755,0,0,1,40.763-24.437,5.166,5.166,0,1,0-1.267-10.253Z" transform="translate(-18.648 -47.344)" fill="#fff"/>
      <path id="Path_33516" data-name="Path 33516" d="M293.515,152.161a5.165,5.165,0,1,0-1.266,10.253,58.753,58.753,0,0,1,40.763,24.437l1.043,1.48a5.166,5.166,0,0,0,8.448-5.949l-1.043-1.479a69.1,69.1,0,0,0-47.945-28.742Z" transform="translate(-63.605 -47.344)" fill="#fff"/>
      <path id="Path_33517" data-name="Path 33517" d="M191,242.427c-16.292,0-29.546,12.39-29.546,27.621S174.708,297.668,191,297.668s29.546-12.39,29.546-27.621S207.291,242.427,191,242.427Zm0,44.909c-10.6,0-19.215-7.756-19.215-17.289S180.4,252.759,191,252.759s19.215,7.756,19.215,17.289S201.595,287.336,191,287.336Z" transform="translate(-24.309 -75.45)" fill="#fff"/>
      <path id="Path_33518" data-name="Path 33518" d="M202.016,270.257a5.165,5.165,0,0,0-5.166,5.166v5.562a5.166,5.166,0,1,0,10.332,0v-5.562A5.166,5.166,0,0,0,202.016,270.257Z" transform="translate(-35.326 -84.111)" fill="#fff"/>
      <path id="Path_33519" data-name="Path 33519" d="M323.734,270.048c0-15.23-13.255-27.62-29.546-27.62s-29.546,12.39-29.546,27.62,13.255,27.621,29.546,27.621S323.734,285.277,323.734,270.048Zm-48.762,0c0-9.533,8.62-17.289,19.215-17.289s19.215,7.756,19.215,17.289-8.62,17.289-19.215,17.289S274.972,279.58,274.972,270.048Z" transform="translate(-56.424 -75.45)" fill="#fff"/>
      <path id="Path_33520" data-name="Path 33520" d="M310.369,280.984v-5.562a5.166,5.166,0,0,0-10.332,0v5.562a5.166,5.166,0,0,0,10.332,0Z" transform="translate(-67.44 -84.111)" fill="#fff"/>
      <path id="Path_33521" data-name="Path 33521" d="M202.442,371.475c0,16.316,16.376,29.591,36.506,29.591s36.506-13.274,36.506-29.591-16.376-29.591-36.506-29.591S202.442,355.158,202.442,371.475Zm62.68,0c0,10.62-11.742,19.259-26.175,19.259s-26.175-8.639-26.175-19.259,11.742-19.259,26.175-19.259S265.122,360.855,265.122,371.475Z" transform="translate(-37.066 -106.403)" fill="#fff"/>
      <path id="Path_33522" data-name="Path 33522" d="M233.916,377.968a5.166,5.166,0,0,0,1.953,7.04,26.53,26.53,0,0,0,25.987,0,5.166,5.166,0,1,0-5.087-8.993,16.144,16.144,0,0,1-15.815,0A5.166,5.166,0,0,0,233.916,377.968Z" transform="translate(-46.653 -116.817)" fill="#fff"/>
      <path id="Path_33523" data-name="Path 33523" d="M406.534,491.085l-1.405-1.293a52.8,52.8,0,0,0-21.773-12.032l-13.647-3.717a5.166,5.166,0,0,0-2.714,9.969l13.647,3.717a42.4,42.4,0,0,1,17.492,9.666l1.4,1.292a5.166,5.166,0,1,0,7-7.6Z" transform="translate(-87.093 -147.478)" fill="#fff"/>
      <path id="Path_33524" data-name="Path 33524" d="M261.234,320.742l-17.626-4.8a.315.315,0,0,1-.214-.2l-3.637-10.271a104.532,104.532,0,0,0,45.731-81.843h3.095a22.611,22.611,0,0,0,16.8-37.756V164.19c0-2.781-.148-5.684-.44-8.631a5.166,5.166,0,0,0-10.282,1.019c.259,2.61.39,5.171.39,7.612v15.137a22.551,22.551,0,0,0-6.472-.948h-2.968v-8.916a11.675,11.675,0,0,0-5.243-9.756l-.719-.476a140.681,140.681,0,0,0-155.542,0l-.723.478a11.671,11.671,0,0,0-5.241,9.755v8.916h-2.279a22.507,22.507,0,0,0-7.882,1.419V164.189a76.592,76.592,0,0,1,48.076-71.3,120.632,120.632,0,0,1,90.918,0A77.209,77.209,0,0,1,289.9,136.507a5.166,5.166,0,0,0,9.639-3.72,87.186,87.186,0,0,0-15.163-25.333l-.866-2.519a83.421,83.421,0,0,0-23.444-35.111,58.792,58.792,0,1,0-115.7-1.171,83.467,83.467,0,0,0-24.8,36.282l-.813,2.367a87.211,87.211,0,0,0-21.1,56.886V187.6a22.61,22.61,0,0,0,18.215,36.027h2.4a104.777,104.777,0,0,0,4.9,27.154A5.166,5.166,0,1,0,133,247.625a94.511,94.511,0,0,1-4.52-28.9v-49.26a1.364,1.364,0,0,1,.612-1.139l.722-.477a130.363,130.363,0,0,1,144.14,0l.718.475a1.364,1.364,0,0,1,.614,1.141v49.26a94.349,94.349,0,0,1-51.022,84l-12.56,6.525a21.32,21.32,0,0,1-19.639,0l-12.56-6.525A94.549,94.549,0,0,1,141.6,266.767a5.166,5.166,0,0,0-8.9,5.245,104.9,104.9,0,0,0,31.87,33.828l-3.505,9.9a.316.316,0,0,1-.214.2l-52.654,14.342a52.773,52.773,0,0,0-21.772,12.031L85.014,343.6a5.166,5.166,0,1,0,6.994,7.6l1.406-1.293a42.4,42.4,0,0,1,17.492-9.666l52.653-14.342a10.647,10.647,0,0,0,7.24-6.72l2.8-7.915c.381.2.756.418,1.139.617l12.559,6.525a31.66,31.66,0,0,0,29.165,0l12.56-6.525c.579-.3,1.145-.619,1.717-.93l2.913,8.229a10.65,10.65,0,0,0,7.239,6.719l17.626,4.8a5.165,5.165,0,1,0,2.714-9.967ZM175.219,62.826l3.9-1.3a5.166,5.166,0,0,0-3.268-9.8l-3.9,1.3A82.444,82.444,0,0,0,153.94,61.59a48.462,48.462,0,1,1,96.694.966,82.542,82.542,0,0,0-19.51-9.531l-3.9-1.3a5.166,5.166,0,0,0-3.268,9.8l3.9,1.3a73.278,73.278,0,0,1,36.732,27.525,86.589,86.589,0,0,0-13.733-7.044,130.905,130.905,0,0,0-98.667,0,87.582,87.582,0,0,0-13.648,6.975,73.259,73.259,0,0,1,36.679-27.455ZM103.576,201a12.308,12.308,0,0,1,12.294-12.293h2.279V213.3H115.87A12.308,12.308,0,0,1,103.576,201Zm185.007-12.293a12.293,12.293,0,1,1,0,24.586h-2.968V188.709Z" transform="translate(0 0)" fill="#fff"/>
    </g>
  </g>
</svg>
