<svg xmlns="http://www.w3.org/2000/svg" width="391" height="391.871" viewBox="0 0 391 391.871">
  <g id="_3" data-name="3" transform="translate(-5134 -16280)">
    <rect id="Rectangle_5288" data-name="Rectangle 5288" width="391" height="391" transform="translate(5134 16280)" fill="none"/>
    <g id="spa" transform="translate(5135.425 16324.13)">
      <path id="Path_33511" data-name="Path 33511" d="M265.791,281.268a5.094,5.094,0,1,0-7.155-7.252c-1.859,1.834-6.315,3.977-12.756,3.977s-10.9-2.142-12.756-3.977a5.094,5.094,0,0,0-7.155,7.252c4.387,4.328,11.83,6.912,19.911,6.912s15.524-2.584,19.911-6.912Z" transform="translate(-51.434 -87.439)" fill="#fff"/>
      <path id="Path_33512" data-name="Path 33512" d="M299.568,286.6,243.337,266.75a16.71,16.71,0,0,1-11.131-15.733V228.771a76.188,76.188,0,0,0,35.517-46.111A64.942,64.942,0,0,0,281.181,76.354c.015-.16.024-.321.024-.484a54.155,54.155,0,0,0-54.093-54.093h-6.285a26.868,26.868,0,0,0-52.762,0H161.78a54.155,54.155,0,0,0-54.093,54.093c0,.164.01.325.024.486a64.946,64.946,0,0,0,13.459,106.305,76.189,76.189,0,0,0,35.516,46.109v22.246a16.71,16.71,0,0,1-11.131,15.733L89.324,286.6A37.817,37.817,0,0,0,64.131,322.2v20.443a5.094,5.094,0,1,0,10.188,0V322.2a27.615,27.615,0,0,1,18.4-26l24.141-8.52L279.8,347.43a5.094,5.094,0,0,0,3.508-9.566l-74.067-27.158,62.793-23.024,24.142,8.52a27.614,27.614,0,0,1,18.4,26v20.443a5.094,5.094,0,0,0,10.188,0V322.2A37.819,37.819,0,0,0,299.568,286.6ZM292.8,124.871a54.438,54.438,0,0,1-22.747,44.465c.175-2.1.268-4.214.268-6.354V140.011A21.415,21.415,0,0,0,259.15,121.2l-32.5-17.73c16.088-4.79,34.44-11.376,48.69-18.656a54.646,54.646,0,0,1,17.46,40.056ZM194.445,10.188a16.711,16.711,0,0,1,15.885,11.59H178.559A16.713,16.713,0,0,1,194.445,10.188ZM96.1,124.87a54.989,54.989,0,0,1,39.847-52.732,5.094,5.094,0,0,0-2.773-9.8,64.285,64.285,0,0,0-14.672,6.2,43.969,43.969,0,0,1,43.281-36.571h65.332a43.968,43.968,0,0,1,43.284,36.59A64.581,64.581,0,0,0,238,59.888H156.335a5.094,5.094,0,0,0,0,10.188H238a54.454,54.454,0,0,1,28.127,7.792C224.8,97.8,162.146,108.683,136.8,112.477a21.276,21.276,0,0,0-18.222,21.184v29.32c0,2.129.092,4.237.266,6.323A55.2,55.2,0,0,1,96.1,124.87Zm32.667,38.112v-29.32a11.15,11.15,0,0,1,9.542-11.109,714.211,714.211,0,0,0,74.312-15.14c.085.053.171.1.26.152l41.395,22.579a11.235,11.235,0,0,1,5.857,9.867v22.971a65.683,65.683,0,1,1-131.366,0Zm65.683,142.3L131.934,282.36l17.01-6a26.913,26.913,0,0,0,17.928-25.34V233.666a75.87,75.87,0,0,0,55.145,0v17.352a26.913,26.913,0,0,0,17.928,25.34l17.01,6Z" fill="#fff"/>
      <path id="Path_33513" data-name="Path 33513" d="M222.083,211.243a26.871,26.871,0,1,0-26.871,26.871A26.9,26.9,0,0,0,222.083,211.243Zm-26.872,16.683a16.683,16.683,0,1,1,16.683-16.683A16.7,16.7,0,0,1,195.211,227.927Z" transform="translate(-33.433 -59.15)" fill="#fff"/>
      <path id="Path_33514" data-name="Path 33514" d="M291.4,238.114a26.89,26.89,0,0,0,26.021-33.6,5.094,5.094,0,1,0-9.866,2.543,16.659,16.659,0,1,1-12-11.981,5.094,5.094,0,1,0,2.527-9.869,26.874,26.874,0,1,0-6.682,52.9Z" transform="translate(-64.292 -59.15)" fill="#fff"/>
    </g>
  </g>
</svg>
