<svg xmlns="http://www.w3.org/2000/svg" width="391" height="391" viewBox="0 0 391 391">
  <g id="_4" data-name="4" transform="translate(-5648 -16280)">
    <rect id="Rectangle_5289" data-name="Rectangle 5289" width="391" height="391" transform="translate(5648 16280)" fill="none"/>
    <g id="waxing" transform="translate(5699.999 16329.314)">
      <path id="Path_33503" data-name="Path 33503" d="M196.254,285.476a183.976,183.976,0,0,1-65.508-12.117,174.744,174.744,0,0,0-125.06,0A4.2,4.2,0,0,1,0,269.436V160.98a4.2,4.2,0,0,1,2.706-3.922,182.582,182.582,0,0,1,118.442-4.276,4.2,4.2,0,1,1-2.42,8.034A174.163,174.163,0,0,0,8.391,163.9v99.559a183.019,183.019,0,0,1,125.332,2.056,174.678,174.678,0,0,0,122.354,1V166.958a183.564,183.564,0,0,1-58.639,10.057,183.658,183.658,0,0,1-64.411-11.263,4.2,4.2,0,0,1,2.877-7.882,175.432,175.432,0,0,0,61.479,10.755,175.728,175.728,0,0,0,61.4-11.567,4.2,4.2,0,0,1,5.684,3.922V269.436a4.2,4.2,0,0,1-2.706,3.922,183.96,183.96,0,0,1-65.508,12.117Zm-17.334-29.36q-3.328,0-6.787-.225c-14.58-.954-28.509-5.61-41.388-10.5-12.815-4.865-26.066-9.9-39.247-11.679l-3.587-.483c-13.972-1.875-26.04-3.494-34.834-6.927-10.686-4.17-15.88-10.909-15.88-20.6a25.61,25.61,0,0,1,8.51-19.015c9.646-9.035,26.638-13.468,46.628-12.157,14.579.954,28.508,5.61,41.388,10.5,12.814,4.865,26.065,9.9,39.247,11.679a4.2,4.2,0,1,1-1.125,8.314c-14.136-1.912-27.843-7.117-41.1-12.149-12.27-4.658-25.482-9.09-38.957-9.972-17.681-1.157-32.386,2.454-40.344,9.909A17.192,17.192,0,0,0,45.588,205.7c0,12.789,14.9,15.384,43.44,19.214l3.6.484c14.134,1.912,27.842,7.117,41.1,12.149,12.269,4.658,25.481,9.09,38.958,9.972,17.681,1.158,32.385-2.454,40.344-9.909a17.194,17.194,0,0,0,5.855-12.892c0-9.533-7.769-13.935-30.788-17.444a4.2,4.2,0,0,1,1.264-8.295c19.184,2.924,37.915,7.32,37.915,25.739a25.61,25.61,0,0,1-8.51,19.016C210.228,251.726,195.941,256.116,178.92,256.116ZM134.434,143.47H134.4a4.2,4.2,0,0,1-4.162-4.2v-.027l.345-43.629c.187-3.788-.97-5.846-5.026-8.112l-15.8-8.833C91.567,68.5,84.74,45.54,94.533,27.475A37.757,37.757,0,0,1,146.152,12.5a28,28,0,0,1,14.326,24.42v2.811l57.594,32.189a4.2,4.2,0,1,1-4.093,7.324l-53.5-29.9V78.182l98.8,55.216a12.586,12.586,0,0,0,12.28-21.973l-43.473-24.3a4.2,4.2,0,0,1,4.093-7.324l43.472,24.3a20.976,20.976,0,1,1-20.467,36.621L155.189,84.837H149.9a11.157,11.157,0,0,0-10.928,10.947l-.343,43.522a4.2,4.2,0,0,1-4.194,4.163ZM127.779,16.08a29.5,29.5,0,0,0-8.226,1.177A29.164,29.164,0,0,0,101.91,31.475c-7.617,14.049-2.263,31.934,11.935,39.868l15.8,8.833a22.1,22.1,0,0,1,5.023,3.734,19.483,19.483,0,0,1,8.015-6.059L117.937,64.017A20.976,20.976,0,1,1,138.4,27.4l4.032,2.254a4.2,4.2,0,0,1-4.093,7.324l-4.032-2.253a12.586,12.586,0,1,0-12.28,21.972l30.057,16.8V36.923a19.6,19.6,0,0,0-10.03-17.1,29.193,29.193,0,0,0-14.279-3.747Z" transform="translate(0 0)" fill="#fff"/>
    </g>
  </g>
</svg>
