<svg xmlns="http://www.w3.org/2000/svg" width="391" height="391" viewBox="0 0 391 391">
  <g id="_5" data-name="5" transform="translate(-6175 -16280)">
    <rect id="Rectangle_5290" data-name="Rectangle 5290" width="391" height="391" transform="translate(6175 16280)" fill="none"/>
    <g id="hair-washing" transform="translate(6166.598 16307)">
      <g id="Group_17186" data-name="Group 17186" transform="translate(139.37 119.714)">
        <g id="Group_17185" data-name="Group 17185" transform="translate(0)">
          <path id="Path_33504" data-name="Path 33504" d="M202.8,350.988A16.592,16.592,0,0,1,193.451,336v-109.6a72.6,72.6,0,0,1,10.073-36.939,4.933,4.933,0,0,0-8.493-5.022,82.483,82.483,0,0,0-11.446,41.961V336a26.392,26.392,0,0,0,14.869,23.848,4.934,4.934,0,0,0,4.346-8.859Z" transform="translate(-183.585 -182.01)" fill="#fff"/>
        </g>
      </g>
      <g id="Group_17188" data-name="Group 17188" transform="translate(236.61 81.935)">
        <g id="Group_17187" data-name="Group 17187">
          <path id="Path_33505" data-name="Path 33505" d="M389.629,151.174a82.339,82.339,0,0,0-52.78-26.576,4.933,4.933,0,0,0-.979,9.817,72.687,72.687,0,0,1,65.388,72.318V316.338a16.751,16.751,0,0,1-9.684,15.151,4.933,4.933,0,1,0,4.146,8.952,26.647,26.647,0,0,0,15.4-24.1v-109.6A82.339,82.339,0,0,0,389.629,151.174Z" transform="translate(-331.426 -124.573)" fill="#fff"/>
        </g>
      </g>
      <g id="Group_17190" data-name="Group 17190" transform="translate(136.08 149.697)">
        <g id="Group_17189" data-name="Group 17189">
          <path id="Path_33506" data-name="Path 33506" d="M361.059,406.694a114.706,114.706,0,0,0-66.052-41.738v-15.24a56.7,56.7,0,0,0,36.341-52.85V258.282a4.933,4.933,0,0,0-6.487-4.682,24.244,24.244,0,0,1-7.654,1.222,24.577,24.577,0,0,1-24.43-22.655,4.933,4.933,0,0,0-9.442-1.607,69.4,69.4,0,0,1-63.641,41.692c-1.674,0-3.384-.06-5.082-.179-.056,0-.112,0-.168,0s-.116-.009-.176-.009h-10.2a4.933,4.933,0,1,0,0,9.866h5.265v14.938a56.7,56.7,0,0,0,36.341,52.85v15.24a114.71,114.71,0,0,0-66.052,41.738,4.933,4.933,0,1,0,7.787,6.058,104.822,104.822,0,0,1,64.078-38.9A4.934,4.934,0,0,0,255.539,369V352.527c.387.072.778.126,1.167.189.314.052.626.106.942.153.594.087,1.19.159,1.788.228.322.037.643.08.967.111.634.062,1.27.105,1.907.145.287.018.571.045.859.059.925.045,1.852.07,2.78.07h8.78c.929,0,1.855-.026,2.78-.07.288-.014.572-.041.859-.059.637-.041,1.273-.084,1.907-.145.324-.032.645-.074.967-.111.6-.068,1.194-.141,1.788-.228.315-.047.628-.1.942-.153.389-.064.779-.117,1.167-.189V369a4.934,4.934,0,0,0,4.053,4.854,104.822,104.822,0,0,1,64.078,38.9,4.934,4.934,0,0,0,7.79-6.057ZM286.4,342.144l-.014,0c-.7.18-1.4.341-2.11.488l-.243.051q-2.15.436-4.368.67c-.162.017-.326.03-.489.046q-.842.08-1.692.129c-.2.011-.394.024-.591.033-.719.033-1.44.055-2.167.055h-8.775c-.726,0-1.448-.022-2.167-.055-.2-.009-.394-.022-.591-.033q-.85-.049-1.692-.129c-.163-.015-.327-.029-.489-.046q-2.216-.234-4.368-.67l-.243-.051c-.709-.148-1.413-.308-2.11-.488l-.014,0A46.837,46.837,0,0,1,219.2,296.866V282.118a79.272,79.272,0,0,0,67.247-36.5,34.39,34.39,0,0,0,35.035,18.807v32.441A46.839,46.839,0,0,1,286.4,342.144Z" transform="translate(-178.582 -227.595)" fill="#fff"/>
        </g>
      </g>
      <g id="Group_17192" data-name="Group 17192" transform="translate(54.402 0)">
        <g id="Group_17191" data-name="Group 17191">
          <path id="Path_33507" data-name="Path 33507" d="M212.947,35.779,209.48,21.735A28.593,28.593,0,0,0,171.942,1.721L132.182,16.191c-37.651,13.7-66.026,49.538-77.445,78.973a4.933,4.933,0,1,0,9.2,3.568c5.354-13.8,14.832-28.828,26-41.226,13.541-15.029,29.315-26.11,45.618-32.043l39.759-14.471A18.726,18.726,0,0,1,199.9,24.1l2.4,9.741-3.767,1.371h0L155.016,51.053l-.005,0-2.171.791-4.513-3.812a4.932,4.932,0,0,0-4.87-.867C120.052,55.685,99.334,68.151,74.3,101.3a4.933,4.933,0,1,0,7.874,5.945c22.706-30.07,40.777-41.724,61.989-49.815l4.494,3.8a4.933,4.933,0,0,0,4.871.867l.228-.083L157.573,72.5a4.934,4.934,0,0,0,6.323,2.949l43.518-15.84a4.933,4.933,0,0,0,2.948-6.323L206.545,42.8l3.3-1.2A4.933,4.933,0,0,0,212.947,35.779Zm-47.79,28.71-2.129-5.851,34.246-12.465,2.129,5.851Z" transform="translate(-54.402 0)" fill="#fff"/>
        </g>
      </g>
      <g id="Group_17194" data-name="Group 17194" transform="translate(183.506 70.246)">
        <g id="Group_17193" data-name="Group 17193">
          <path id="Path_33508" data-name="Path 33508" d="M269.67,135.911l-9.413-25.863a4.933,4.933,0,1,0-9.27,3.374l9.412,25.863a4.933,4.933,0,1,0,9.271-3.374Z" transform="translate(-250.689 -106.8)" fill="#fff"/>
        </g>
      </g>
      <g id="Group_17196" data-name="Group 17196" transform="translate(164.563 77.141)">
        <g id="Group_17195" data-name="Group 17195">
          <path id="Path_33509" data-name="Path 33509" d="M232.694,139.72l-.947-17.766a4.933,4.933,0,1,0-9.852.526l.947,17.766a4.933,4.933,0,0,0,4.921,4.671c.089,0,.178,0,.267-.007A4.933,4.933,0,0,0,232.694,139.72Z" transform="translate(-221.888 -117.283)" fill="#fff"/>
        </g>
      </g>
      <g id="Group_17198" data-name="Group 17198" transform="translate(201.299 63.769)">
        <g id="Group_17197" data-name="Group 17197">
          <path id="Path_33510" data-name="Path 33510" d="M299.391,115.911,286.617,98.921a4.933,4.933,0,0,0-7.886,5.929L291.5,121.84a4.933,4.933,0,0,0,7.886-5.929Z" transform="translate(-277.74 -96.953)" fill="#fff"/>
        </g>
      </g>
    </g>
  </g>
</svg>
